PathFileType	4	(X/Y/Z)	/Users/itak/Documents/Research/Walk-IL/dataset/trc/00423_00012.trc
DataRate	CameraRate	NumFrames	NumMarkers	Units	OrigDataRate	OrigDataStartFrame	OrigNumFrames
100.000000	100.000000	4	53	mm	100.000000	0	560
Frame#	Time	RPSI			LPSI			L3			STRN			T10			C7			CLAV			RBAK			LBAK			LSHO			LUPA			LAEL			LAOL			LWTS			LWPS			LFRA			LHPS			LHTS			RSHO			RUPA			RAEL			RAOL			RWTS			RWPS			RFRA			RIFD			RHTS			RHPS			RBHD			LFHD			RFHD			LBHD			LHIP			RHIP			RASI			LASI			LKNE			LTHI			LANK			LTIP			LTOE			LMT1			LMT5			LHEE			RKNE			RTHI			RANK			RTIP			RTOE			RMT1			RMT5			RHEE			LIFD			
		X1	Y1	Z1	X2	Y2	Z2	X3	Y3	Z3	X4	Y4	Z4	X5	Y5	Z5	X6	Y6	Z6	X7	Y7	Z7	X8	Y8	Z8	X9	Y9	Z9	X10	Y10	Z10	X11	Y11	Z11	X12	Y12	Z12	X13	Y13	Z13	X14	Y14	Z14	X15	Y15	Z15	X16	Y16	Z16	X17	Y17	Z17	X18	Y18	Z18	X19	Y19	Z19	X20	Y20	Z20	X21	Y21	Z21	X22	Y22	Z22	X23	Y23	Z23	X24	Y24	Z24	X25	Y25	Z25	X26	Y26	Z26	X27	Y27	Z27	X28	Y28	Z28	X29	Y29	Z29	X30	Y30	Z30	X31	Y31	Z31	X32	Y32	Z32	X33	Y33	Z33	X34	Y34	Z34	X35	Y35	Z35	X36	Y36	Z36	X37	Y37	Z37	X38	Y38	Z38	X39	Y39	Z39	X40	Y40	Z40	X41	Y41	Z41	X42	Y42	Z42	X43	Y43	Z43	X44	Y44	Z44	X45	Y45	Z45	X46	Y46	Z46	X47	Y47	Z47	X48	Y48	Z48	X49	Y49	Z49	X50	Y50	Z50	X51	Y51	Z51	X52	Y52	Z52	X53	Y53	Z53	

1	0	-1566.636108398438	996.123779296875	-539.3187255859375	-1577.737060546875	987.9406127929688	-669.8165283203125	-1569.065063476562	1060.04443359375	-603.285400390625	-1334.56201171875	1216.589599609375	-609.447998046875	-1579.146362304688	1164.2470703125	-607.4820556640625	-1544.442749023438	1413.392822265625	-617.8933715820312	-1388.180908203125	1335.293334960938	-609.5972290039062	-1584.662109375	1267.472290039062	-548.4584350585938	-1553.843872070312	1375.561401367188	-722.6421508789062	-1465.955200195312	1394.953247070312	-768.9624633789062	-1472.004516601562	1278.478149414062	-842.6559448242188	-1426.83837890625	1082.445556640625	-858.1908569335938	-1490.374267578125	1057.44677734375	-808.0479736328125	-1308.242065429688	885.2588500976562	-797.2582397460938	-1359.87109375	857.793701171875	-861.204345703125	-1398.633666992188	979.9031982421875	-860.7547607421875	-1340.5947265625	774.450439453125	-848.9776611328125	-1296.172607421875	780.8821411132812	-803.8168334960938	-1484.433837890625	1393.251342773438	-458.2758178710938	-1492.0849609375	1326.636596679688	-398.9147338867188	-1451.081909179688	1065.698852539062	-359.4264221191406	-1474.011352539062	1053.547729492188	-449.7178649902344	-1308.694702148438	860.2139892578125	-396.0315551757812	-1344.94384765625	847.310546875	-332.16357421875	-1418.016357421875	1004.272827148438	-345.9326782226562	-1301.812744140625	686.5142822265625	-393.2671203613281	-1282.010131835938	756.0342407226562	-377.5145874023438	-1334.494140625	757.9056396484375	-332.0377197265625	-1520.286499023438	1603.019287109375	-537.350341796875	-1356.898559570312	1611.735717773438	-649.2578735351562	-1387.779663085938	1614.121337890625	-531.14306640625	-1496.452880859375	1598.140991210938	-697.7171020507812	-1497.532348632812	972.3182373046875	-787.227294921875	-1478.366821289062	970.4847412109375	-428.9483642578125	-1350.147705078125	973.7796020507812	-491.1325073242188	-1381.965454101562	966.0712280273438	-752.6975708007812	-1471.244506835938	477.0569458007812	-768.30126953125	-1471.381713867188	619.4179077148438	-778.6677856445312	-1558.463134765625	41.00173187255859	-711.5061645507812	-1520.719848632812	247.6037139892578	-753.3173217773438	-1337.105346679688	45.74086761474609	-669.113525390625	-1414.877563476562	48.03604507446289	-633.515869140625	-1431.772583007812	41.74282836914062	-736.5549926757812	-1587.611328125	41.96069717407227	-649.2703247070312	-1453.247314453125	479.0804748535156	-444.4881896972656	-1407.329467773438	741.5049438476562	-431.7228698730469	-1497.422485351562	58.01474761962891	-471.1354064941406	-1446.294555664062	354.2158203125	-456.8309326171875	-1320.203125	40.73662185668945	-541.8433227539062	-1398.203857421875	45.37224197387695	-567.8268432617188	-1411.982666015625	49.51824951171875	-469.2962036132812	-1571.336059570312	45.14638900756836	-522.1093139648438	-1319.138061523438	700.1046752929688	-783.1654663085938	
2	0.01	-1566.667846679688	996.1192626953125	-539.3136596679688	-1577.790405273438	987.9329223632812	-669.8135986328125	-1569.112182617188	1060.055297851562	-603.2816772460938	-1334.6142578125	1216.56884765625	-609.4483032226562	-1579.196044921875	1164.264770507812	-607.468994140625	-1544.467651367188	1413.401000976562	-617.8778686523438	-1388.146362304688	1335.307861328125	-609.5258178710938	-1584.696655273438	1267.476196289062	-548.4564819335938	-1553.858764648438	1375.58056640625	-722.632080078125	-1465.986083984375	1394.966674804688	-768.9483642578125	-1472.033569335938	1278.505737304688	-842.6475830078125	-1426.89404296875	1082.456420898438	-858.1741333007812	-1490.444702148438	1057.472534179688	-808.057861328125	-1308.2548828125	885.3094482421875	-797.2459716796875	-1359.973388671875	857.7919921875	-861.1979370117188	-1398.66015625	979.9073486328125	-860.7406005859375	-1340.743896484375	774.4531860351562	-848.9645385742188	-1296.238159179688	780.8983154296875	-803.8360595703125	-1484.4404296875	1393.244506835938	-458.2544860839844	-1492.098388671875	1326.624389648438	-398.9044189453125	-1451.13818359375	1065.68798828125	-359.4400634765625	-1474.048583984375	1053.539794921875	-449.7223205566406	-1308.600830078125	860.2669067382812	-396.0843200683594	-1345.002075195312	847.3185424804688	-332.2153625488281	-1418.0908203125	1004.262390136719	-345.9621887207031	-1301.685180664062	686.6212158203125	-393.3528747558594	-1281.864379882812	756.1472778320312	-377.5706787109375	-1334.39013671875	757.899658203125	-332.0735778808594	-1520.269897460938	1603.080810546875	-537.3502197265625	-1356.8427734375	1611.656005859375	-649.3576049804688	-1387.729125976562	1614.0703125	-531.161376953125	-1496.4580078125	1598.135131835938	-697.7078857421875	-1497.612915039062	972.3228149414062	-787.2278442382812	-1478.484252929688	970.4945068359375	-428.9851989746094	-1350.177856445312	973.7927856445312	-491.1670532226562	-1382.031127929688	966.0775146484375	-752.7151489257812	-1471.272338867188	477.060302734375	-768.2935791015625	-1471.4384765625	619.40966796875	-778.6723022460938	-1558.451904296875	40.98733901977539	-711.4954833984375	-1520.759033203125	247.6022338867188	-753.3128662109375	-1337.101806640625	45.74456024169922	-669.1133422851562	-1414.799194335938	48.06192398071289	-633.5042114257812	-1431.778564453125	41.73908615112305	-736.5555419921875	-1587.60107421875	41.94266128540039	-649.2640380859375	-1453.262573242188	479.0940551757812	-444.4969177246094	-1407.34814453125	741.5097045898438	-431.7544555664062	-1497.416381835938	58.01876449584961	-471.1314392089844	-1446.319702148438	354.2080993652344	-456.8394165039062	-1320.193481445312	40.73056411743164	-541.8363647460938	-1398.208740234375	45.37355041503906	-567.8295288085938	-1411.92578125	49.54794692993164	-469.2918701171875	-1571.330444335938	45.13847732543945	-522.1146240234375	-1319.19921875	700.1160278320312	-783.114501953125	
3	0.02	-1566.7080078125	996.112548828125	-539.3045043945312	-1577.8603515625	987.922607421875	-669.8077392578125	-1569.170532226562	1060.069702148438	-603.2728271484375	-1334.680053710938	1216.545654296875	-609.451171875	-1579.257568359375	1164.285034179688	-607.4501953125	-1544.502197265625	1413.410888671875	-617.854248046875	-1388.118286132812	1335.318359375	-609.4507446289062	-1584.741455078125	1267.480834960938	-548.4476318359375	-1553.88134765625	1375.604248046875	-722.6139526367188	-1466.031372070312	1394.984497070312	-768.9274291992188	-1472.080078125	1278.5380859375	-842.6331787109375	-1426.965209960938	1082.47119140625	-858.1487426757812	-1490.546020507812	1057.504638671875	-808.0656127929688	-1308.2978515625	885.3660888671875	-797.2096557617188	-1360.098266601562	857.7908325195312	-861.1862182617188	-1398.6953125	979.9103393554688	-860.7172241210938	-1340.9189453125	774.4541625976562	-848.9404296875	-1296.34619140625	780.9202880859375	-803.8421020507812	-1484.4501953125	1393.235717773438	-458.2235107421875	-1492.11181640625	1326.608642578125	-398.8880615234375	-1451.220703125	1065.674194335938	-359.4624938964844	-1474.106689453125	1053.52880859375	-449.7316589355469	-1308.468627929688	860.3428344726562	-396.1511535644531	-1345.075561523438	847.3280029296875	-332.2843017578125	-1418.180297851562	1004.247680664062	-345.9995422363281	-1301.513427734375	686.74951171875	-393.4548950195312	-1281.68896484375	756.29052734375	-377.6415405273438	-1334.27392578125	757.8934936523438	-332.1226501464844	-1520.225952148438	1603.14892578125	-537.338623046875	-1356.767211914062	1611.554321289062	-649.491943359375	-1387.65869140625	1614.014404296875	-531.213134765625	-1496.47021484375	1598.127807617188	-697.6957397460938	-1497.708129882812	972.3259887695312	-787.2277221679688	-1478.621826171875	970.5046997070312	-429.0260314941406	-1350.222900390625	973.802490234375	-491.2038879394531	-1382.110961914062	966.0888671875	-752.7353515625	-1471.30322265625	477.06201171875	-768.284423828125	-1471.513671875	619.4024658203125	-778.6764526367188	-1558.439575195312	40.97049331665039	-711.4821166992188	-1520.803466796875	247.6011047363281	-753.306640625	-1337.100463867188	45.74794387817383	-669.1131591796875	-1414.72216796875	48.08863067626953	-633.492919921875	-1431.783813476562	41.73642730712891	-736.5552368164062	-1587.588745117188	41.92219543457031	-649.2567138671875	-1453.279174804688	479.1155395507812	-444.5092468261719	-1407.375732421875	741.5164794921875	-431.7892150878906	-1497.427856445312	58.015380859375	-471.1295471191406	-1446.346435546875	354.20361328125	-456.8488159179688	-1320.182250976562	40.72381973266602	-541.8284301757812	-1398.21337890625	45.37645721435547	-567.8319702148438	-1411.864135742188	49.58000564575195	-469.2835693359375	-1571.323486328125	45.13018035888672	-522.1203002929688	-1319.289794921875	700.1211547851562	-783.0499267578125	
4	0.03	-1566.75537109375	996.1035766601562	-539.2905883789062	-1577.944213867188	987.9094848632812	-669.7980346679688	-1569.237915039062	1060.087280273438	-603.2574462890625	-1334.757202148438	1216.5224609375	-609.4583740234375	-1579.327880859375	1164.306640625	-607.4249267578125	-1544.547485351562	1413.421752929688	-617.8216552734375	-1388.104248046875	1335.322387695312	-609.3796997070312	-1584.795288085938	1267.486328125	-548.42919921875	-1553.912475585938	1375.63134765625	-722.5861206054688	-1466.092163085938	1395.00634765625	-768.8988037109375	-1472.146118164062	1278.572875976562	-842.6114501953125	-1427.050170898438	1082.4892578125	-858.1141357421875	-1490.678955078125	1057.541625976562	-808.068359375	-1308.380859375	885.4240112304688	-797.1434936523438	-1360.240844726562	857.7907104492188	-861.16748046875	-1398.742431640625	979.9116821289062	-860.6832885742188	-1341.105590820312	774.451904296875	-848.9027099609375	-1296.503784179688	780.9459228515625	-803.8258056640625	-1484.463745117188	1393.225219726562	-458.1824340820312	-1492.122680664062	1326.590087890625	-398.8643493652344	-1451.330688476562	1065.658081054688	-359.49462890625	-1474.189453125	1053.51513671875	-449.7466735839844	-1308.30517578125	860.4403686523438	-396.2316589355469	-1345.15673828125	847.338134765625	-332.3682250976562	-1418.27490234375	1004.227905273438	-346.0416564941406	-1301.301635742188	686.8931884765625	-393.5688171386719	-1281.499145507812	756.45556640625	-377.7252502441406	-1334.159301757812	757.8877563476562	-332.1848449707031	-1520.149169921875	1603.218017578125	-537.3121337890625	-1356.673828125	1611.43505859375	-649.6592407226562	-1387.571044921875	1613.960327148438	-531.304443359375	-1496.492309570312	1598.119262695312	-697.6810302734375	-1497.812622070312	972.3269653320312	-787.2265014648438	-1478.76416015625	970.5128784179688	-429.0644836425781	-1350.282470703125	973.8063354492188	-491.2391662597656	-1382.200805664062	966.106201171875	-752.755859375	-1471.33447265625	477.0615539550781	-768.2742309570312	-1471.602783203125	619.3970947265625	-778.6790771484375	-1558.4267578125	40.95249557495117	-711.4664306640625	-1520.848754882812	247.6001434326172	-753.298583984375	-1337.101928710938	45.75076675415039	-669.1124267578125	-1414.656860351562	48.11263656616211	-633.4832153320312	-1431.786010742188	41.73610687255859	-736.55322265625	-1587.575927734375	41.90163421630859	-649.2492065429688	-1453.296264648438	479.1427612304688	-444.5238647460938	-1407.41357421875	741.5277099609375	-431.8247375488281	-1497.463623046875	58.00138854980469	-471.1306762695312	-1446.372192382812	354.2033386230469	-456.8577880859375	-1320.171997070312	40.71725845336914	-541.8212890625	-1398.217529296875	45.38089370727539	-567.8336791992188	-1411.809692382812	49.60789108276367	-469.2727966308594	-1571.315307617188	45.12265014648438	-522.1256713867188	-1319.411865234375	700.1151733398438	-782.9747314453125	
